<?xml version="1.0" encoding="UTF-8"?>
<svg width="461px" height="170px" viewBox="0 0 461 170" version="1.1" xmlns="http://www.w3.org/2000/svg" xmlns:xlink="http://www.w3.org/1999/xlink">
    <!-- Generator: Sketch 49.3 (51167) - http://www.bohemiancoding.com/sketch -->
    <title>Chainyard_Logo</title>
    <desc>Created with Sketch.</desc>
    <defs>
        <linearGradient x1="95.4706619%" y1="50%" x2="11.4135655%" y2="50%" id="linearGradient-1">
            <stop stop-color="#0075F2" offset="0%"></stop>
            <stop stop-color="#003C7C" offset="100%"></stop>
        </linearGradient>
    </defs>
    <g id="Chainyard_Logo" stroke="none" stroke-width="1" fill="none" fill-rule="evenodd">
        <g transform="translate(27.000000, 60.000000)">
            <g>
                <polygon id="Rectangle-27" fill="url(#linearGradient-1)" transform="translate(114.969072, 25.000000) rotate(115.000000) translate(-114.969072, -25.000000) " points="89.3050464 23.0626696 138.26295 21.9022871 140.633098 26.9373304 91.6751942 28.0977129"></polygon>
                <polygon id="Rectangle-27" fill="#0075F2" transform="translate(133.195876, 25.000000) scale(-1, 1) rotate(115.000000) translate(-133.195876, -25.000000) " points="108.124387 24.3214304 155.897217 20.6435263 158.267365 25.6785696 110.494535 29.3564737"></polygon>
                <polygon id="Rectangle-27" fill="url(#linearGradient-1)" transform="translate(284.618557, 25.000000) rotate(115.000000) translate(-284.618557, -25.000000) " points="258.954531 23.0626696 307.912435 21.9022871 310.282582 26.9373304 261.324679 28.0977129"></polygon>
                <polygon id="Rectangle-27" fill="#0075F2" transform="translate(302.845361, 25.000000) scale(-1, 1) rotate(115.000000) translate(-302.845361, -25.000000) " points="277.773872 24.3214304 325.546702 20.6435263 327.91685 25.6785696 280.14402 29.3564737"></polygon>
                <path d="M40.7298969,40.0972222 C39.9727797,41.2222278 39.0579435,42.2847172 37.9853608,43.2847222 C36.9127781,44.2847272 35.6719658,45.1597185 34.2628866,45.9097222 C32.8538074,46.659726 31.2975343,47.25347 29.5940206,47.6909722 C27.8905069,48.1284744 26.0292884,48.3472222 24.0103093,48.3472222 C20.645344,48.3472222 17.5327978,47.7638947 14.6725773,46.5972222 C11.8123568,45.4305497 9.35176288,43.8159825 7.29072165,41.7534722 C5.22968042,39.6909619 3.62083053,37.2430697 2.46412371,34.4097222 C1.3074169,31.5763747 0.729072165,28.4722391 0.729072165,25.0972222 C0.729072165,21.7222053 1.31793226,18.6180697 2.4956701,15.7847222 C3.67340795,12.9513747 5.30328856,10.5034825 7.38536082,8.44097222 C9.46743309,6.37846191 11.928027,4.76389472 14.7672165,3.59722222 C17.6064059,2.43054972 20.6874061,1.84722222 24.0103093,1.84722222 C25.6507299,1.84722222 27.2595797,2.01388722 28.8369072,2.34722222 C30.4142347,2.68055722 31.8969003,3.14930253 33.2849485,3.75347222 C34.6729966,4.35764191 35.9348397,5.08680128 37.0705155,5.94097222 C38.2061912,6.79514316 39.1525735,7.76388347 39.9096907,8.84722222 L36.1241237,11.5972222 C35.661441,10.8888853 35.0410348,10.1805591 34.2628866,9.47222222 C33.4847384,8.76388535 32.5699022,8.1388916 31.5183505,7.59722222 C30.4667989,7.05555285 29.3206248,6.61805722 28.0797938,6.28472222 C26.8389629,5.95138722 25.5035123,5.78472222 24.0734021,5.78472222 C21.1711195,5.78472222 18.5738259,6.30555035 16.2814433,7.34722222 C13.9890607,8.3888941 12.0437193,9.79513003 10.4453608,11.5659722 C8.84700232,13.3368144 7.6272207,15.3888772 6.78597938,17.7222222 C5.94473806,20.0555672 5.52412371,22.513876 5.52412371,25.0972222 C5.52412371,27.6805685 5.95525342,30.1388772 6.81752577,32.4722222 C7.67979813,34.8055672 8.9100951,36.85763 10.5084536,38.6284722 C12.1068121,40.3993144 14.0521535,41.8055503 16.3445361,42.8472222 C18.6369187,43.8888941 21.2131816,44.4097222 24.0734021,44.4097222 C26.6391881,44.4097222 29.0787513,43.8888941 31.3921649,42.8472222 C33.7055786,41.8055503 35.6404046,40.1389003 37.196701,37.8472222 L40.7298969,40.0972222 Z M57.144759,2.97222222 L61.6874394,2.97222222 L61.6874394,22.1597222 L86.0412539,22.1597222 L86.0412539,2.97222222 L90.5839343,2.97222222 L90.5839343,47.2222222 L86.0412539,47.2222222 L86.0412539,26.2847222 L61.6874394,26.2847222 L61.6874394,47.2222222 L57.144759,47.2222222 L57.144759,2.97222222 Z" id="CH" fill="#4A4A4A"></path>
                <path d="M160.494021,47.2222222 L155.95134,47.2222222 L155.95134,2.97222222 L160.494021,2.97222222 L160.494021,47.2222222 Z M212.619398,40.6597222 L212.745584,40.6597222 L212.745584,2.97222222 L217.288264,2.97222222 L217.288264,47.2222222 L211.609914,47.2222222 L185.615687,9.15972222 L185.489501,9.15972222 L185.489501,47.2222222 L180.946821,47.2222222 L180.946821,2.97222222 L186.625171,2.97222222 L212.619398,40.6597222 Z M253.072611,47.2222222 L248.52993,47.2222222 L248.52993,28.1597222 L231.810343,2.97222222 L237.488693,2.97222222 L250.927456,24.4097222 L264.492405,2.97222222 L269.792198,2.97222222 L253.072611,28.1597222 L253.072611,47.2222222 Z" id="INY" fill="#4A4A4A"></path>
                <path d="M327.339381,47.2222222 L322.796701,47.2222222 L322.796701,2.97222222 L335.92,2.97222222 C338.107227,2.97222222 340.136692,3.18055347 342.008454,3.59722222 C343.880216,4.01389097 345.499581,4.69096753 346.866598,5.62847222 C348.233615,6.56597691 349.295666,7.78471472 350.052784,9.28472222 C350.809901,10.7847297 351.188454,12.6180447 351.188454,14.7847222 C351.188454,16.4097303 350.894024,17.8888822 350.305155,19.2222222 C349.716286,20.5555622 348.917118,21.7118007 347.907629,22.6909722 C346.898139,23.6701438 345.699388,24.451386 344.31134,25.0347222 C342.923292,25.6180585 341.40908,25.9930547 339.76866,26.1597222 L352.828866,47.2222222 L347.276701,47.2222222 L334.910515,26.5347222 L327.339381,26.5347222 L327.339381,47.2222222 Z M327.339381,22.6597222 L335.225979,22.6597222 C338.885379,22.6597222 341.703495,22.0034788 343.680412,20.6909722 C345.657329,19.3784657 346.645773,17.4097353 346.645773,14.7847222 C346.645773,13.3263816 346.372374,12.0972272 345.825567,11.0972222 C345.27876,10.0972172 344.521654,9.28472535 343.554227,8.65972222 C342.586799,8.0347191 341.409079,7.57639035 340.021031,7.28472222 C338.632983,6.9930541 337.09774,6.84722222 335.415258,6.84722222 L327.339381,6.84722222 L327.339381,22.6597222 Z M369.180635,2.97222222 L384.007439,2.97222222 C386.783536,2.97222222 389.570106,3.43055097 392.367233,4.34722222 C395.164361,5.26389347 397.688047,6.64929628 399.938367,8.50347222 C402.188688,10.3576482 404.007845,12.670125 405.395893,15.4409722 C406.783941,18.2118194 407.477955,21.4305372 407.477955,25.0972222 C407.477955,28.8055741 406.783941,32.0347085 405.395893,34.7847222 C404.007845,37.534736 402.188688,39.8367963 399.938367,41.6909722 C397.688047,43.5451482 395.164361,44.930551 392.367233,45.8472222 C389.570106,46.7638935 386.783536,47.2222222 384.007439,47.2222222 L369.180635,47.2222222 L369.180635,2.97222222 Z M373.723316,43.2222222 L382.745584,43.2222222 C386.110549,43.2222222 389.044334,42.7013941 391.547027,41.6597222 C394.04972,40.6180503 396.121246,39.2534807 397.761666,37.5659722 C399.402087,35.8784638 400.632384,33.9513997 401.452594,31.7847222 C402.272804,29.6180447 402.682903,27.3889003 402.682903,25.0972222 C402.682903,22.8055441 402.272804,20.5763997 401.452594,18.4097222 C400.632384,16.2430447 399.402087,14.3159807 397.761666,12.6284722 C396.121246,10.9409638 394.04972,9.5763941 391.547027,8.53472222 C389.044334,7.49305035 386.110549,6.97222222 382.745584,6.97222222 L373.723316,6.97222222 L373.723316,43.2222222 Z" id="RD" fill="#4A4A4A"></path>
            </g>
        </g>
    </g>
</svg>