<?xml version="1.0" encoding="UTF-8"?>
<svg width="348px" height="314px" viewBox="0 0 348 314" version="1.1" xmlns="http://www.w3.org/2000/svg" xmlns:xlink="http://www.w3.org/1999/xlink">
    <!-- Generator: Sketch 49.3 (51167) - http://www.bohemiancoding.com/sketch -->
    <title>empty-auction-state</title>
    <desc>Created with Sketch.</desc>
    <defs></defs>
    <g id="empty-auction-state" stroke="none" stroke-width="1" fill="none" fill-rule="evenodd">
        <path d="M50.979,231.588 L46.695,231.588 L46.695,230.148 L56.973,230.148 L56.973,231.588 L52.689,231.588 L52.689,243 L50.979,243 L50.979,231.588 Z M58.143,230.148 L59.673,230.148 L59.673,235.062 L59.709,235.062 C59.8290006,234.773999 59.9969989,234.531001 60.213,234.333 C60.4290011,234.134999 60.6719986,233.973001 60.942,233.847 C61.2120013,233.720999 61.4939985,233.628 61.788,233.568 C62.0820015,233.508 62.3669986,233.478 62.643,233.478 C63.2550031,233.478 63.764998,233.561999 64.173,233.73 C64.581002,233.898001 64.9109987,234.131999 65.163,234.432 C65.4150013,234.732001 65.5919995,235.088998 65.694,235.503 C65.7960005,235.917002 65.847,236.375997 65.847,236.88 L65.847,243 L64.317,243 L64.317,236.7 C64.317,236.123997 64.1490017,235.668002 63.813,235.332 C63.4769983,234.995998 63.0150029,234.828 62.427,234.828 C61.9589977,234.828 61.5540017,234.899999 61.212,235.044 C60.8699983,235.188001 60.5850011,235.391999 60.357,235.656 C60.1289989,235.920001 59.9580006,236.228998 59.844,236.583 C59.7299994,236.937002 59.673,237.323998 59.673,237.744 L59.673,243 L58.143,243 L58.143,230.148 Z M74.613,237.456 C74.5889999,237.095998 74.5080007,236.754002 74.37,236.43 C74.2319993,236.105998 74.0460012,235.827001 73.812,235.593 C73.5779988,235.358999 73.3020016,235.173001 72.984,235.035 C72.6659984,234.896999 72.3150019,234.828 71.931,234.828 C71.534998,234.828 71.1780016,234.896999 70.86,235.035 C70.5419984,235.173001 70.2690011,235.361999 70.041,235.602 C69.8129989,235.842001 69.6330007,236.120998 69.501,236.439 C69.3689993,236.757002 69.2910001,237.095998 69.267,237.456 L74.613,237.456 Z M76.089,240.048 C75.884999,241.092005 75.4350035,241.877997 74.739,242.406 C74.0429965,242.934003 73.1670053,243.198 72.111,243.198 C71.3669963,243.198 70.7220027,243.078001 70.176,242.838 C69.6299973,242.597999 69.1710019,242.262002 68.799,241.83 C68.4269981,241.397998 68.1480009,240.882003 67.962,240.282 C67.7759991,239.681997 67.6710001,239.028004 67.647,238.32 C67.647,237.611996 67.7549989,236.964003 67.971,236.376 C68.1870011,235.787997 68.489998,235.278002 68.88,234.846 C69.2700019,234.413998 69.7319973,234.078001 70.266,233.838 C70.8000027,233.597999 71.3849968,233.478 72.021,233.478 C72.8490041,233.478 73.5359973,233.648998 74.082,233.991 C74.6280027,234.333002 75.0659983,234.767997 75.396,235.296 C75.7260016,235.824003 75.9539994,236.399997 76.08,237.024 C76.2060006,237.648003 76.2570001,238.241997 76.233,238.806 L69.267,238.806 C69.2549999,239.214002 69.3029995,239.600998 69.411,239.967 C69.5190005,240.333002 69.6929988,240.656999 69.933,240.939 C70.1730012,241.221001 70.4789981,241.445999 70.851,241.614 C71.2230019,241.782001 71.6609975,241.866 72.165,241.866 C72.8130032,241.866 73.3439979,241.716002 73.758,241.416 C74.1720021,241.115998 74.4449993,240.660003 74.577,240.048 L76.089,240.048 Z M77.763,233.694 L79.203,233.694 L79.203,235.656 L79.239,235.656 C79.6110019,234.899996 80.0669973,234.342002 80.607,233.982 C81.1470027,233.621998 81.8309959,233.454 82.659,233.478 L82.659,235.098 C82.0469969,235.098 81.5250022,235.181999 81.093,235.35 C80.6609978,235.518001 80.3130013,235.763998 80.049,236.088 C79.7849987,236.412002 79.5930006,236.804998 79.473,237.267 C79.3529994,237.729002 79.293,238.259997 79.293,238.86 L79.293,243 L77.763,243 L77.763,233.694 Z M90.273,237.456 C90.2489999,237.095998 90.1680007,236.754002 90.03,236.43 C89.8919993,236.105998 89.7060012,235.827001 89.472,235.593 C89.2379988,235.358999 88.9620016,235.173001 88.644,235.035 C88.3259984,234.896999 87.9750019,234.828 87.591,234.828 C87.194998,234.828 86.8380016,234.896999 86.52,235.035 C86.2019984,235.173001 85.9290011,235.361999 85.701,235.602 C85.4729989,235.842001 85.2930007,236.120998 85.161,236.439 C85.0289993,236.757002 84.9510001,237.095998 84.927,237.456 L90.273,237.456 Z M91.749,240.048 C91.544999,241.092005 91.0950035,241.877997 90.399,242.406 C89.7029965,242.934003 88.8270053,243.198 87.771,243.198 C87.0269963,243.198 86.3820027,243.078001 85.836,242.838 C85.2899973,242.597999 84.8310019,242.262002 84.459,241.83 C84.0869981,241.397998 83.8080009,240.882003 83.622,240.282 C83.4359991,239.681997 83.3310001,239.028004 83.307,238.32 C83.307,237.611996 83.4149989,236.964003 83.631,236.376 C83.8470011,235.787997 84.149998,235.278002 84.54,234.846 C84.9300019,234.413998 85.3919973,234.078001 85.926,233.838 C86.4600027,233.597999 87.0449968,233.478 87.681,233.478 C88.5090041,233.478 89.1959973,233.648998 89.742,233.991 C90.2880027,234.333002 90.7259983,234.767997 91.056,235.296 C91.3860016,235.824003 91.6139994,236.399997 91.74,237.024 C91.8660006,237.648003 91.9170001,238.241997 91.893,238.806 L84.927,238.806 C84.9149999,239.214002 84.9629995,239.600998 85.071,239.967 C85.1790005,240.333002 85.3529988,240.656999 85.593,240.939 C85.8330012,241.221001 86.1389981,241.445999 86.511,241.614 C86.8830019,241.782001 87.3209975,241.866 87.825,241.866 C88.4730032,241.866 89.0039979,241.716002 89.418,241.416 C89.8320021,241.115998 90.1049993,240.660003 90.237,240.048 L91.749,240.048 Z M106.725,242.964 C106.460999,243.120001 106.095002,243.198 105.627,243.198 C105.230998,243.198 104.916001,243.087001 104.682,242.865 C104.447999,242.642999 104.331,242.280003 104.331,241.776 C103.910998,242.280003 103.422003,242.642999 102.864,242.865 C102.305997,243.087001 101.703003,243.198 101.055,243.198 C100.634998,243.198 100.236002,243.15 99.858,243.054 C99.4799981,242.958 99.1530014,242.808001 98.877,242.604 C98.6009986,242.399999 98.3820008,242.133002 98.22,241.803 C98.0579992,241.472998 97.977,241.074002 97.977,240.606 C97.977,240.077997 98.0669991,239.646002 98.247,239.31 C98.4270009,238.973998 98.6639985,238.701001 98.958,238.491 C99.2520015,238.280999 99.5879981,238.122001 99.966,238.014 C100.344002,237.905999 100.730998,237.816 101.127,237.744 C101.547002,237.66 101.945998,237.597 102.324,237.555 C102.702002,237.513 103.034999,237.453 103.323,237.375 C103.611001,237.297 103.838999,237.183001 104.007,237.033 C104.175001,236.882999 104.259,236.664001 104.259,236.376 C104.259,236.039998 104.196001,235.770001 104.07,235.566 C103.943999,235.361999 103.782001,235.206001 103.584,235.098 C103.385999,234.989999 103.164001,234.918 102.918,234.882 C102.671999,234.846 102.429001,234.828 102.189,234.828 C101.540997,234.828 101.001002,234.950999 100.569,235.197 C100.136998,235.443001 99.9030002,235.907997 99.867,236.592 L98.337,236.592 C98.3610001,236.015997 98.4809989,235.530002 98.697,235.134 C98.9130011,234.737998 99.2009982,234.417001 99.561,234.171 C99.9210018,233.924999 100.331998,233.748001 100.794,233.64 C101.256002,233.531999 101.750997,233.478 102.279,233.478 C102.699002,233.478 103.115998,233.508 103.53,233.568 C103.944002,233.628 104.318998,233.750999 104.655,233.937 C104.991002,234.123001 105.260999,234.383998 105.465,234.72 C105.669001,235.056002 105.771,235.493997 105.771,236.034 L105.771,240.822 C105.771,241.182002 105.792,241.445999 105.834,241.614 C105.876,241.782001 106.016999,241.866 106.257,241.866 C106.389001,241.866 106.544999,241.836 106.725,241.776 L106.725,242.964 Z M104.241,238.194 C104.048999,238.338001 103.797002,238.443 103.485,238.509 C103.172998,238.575 102.846002,238.629 102.504,238.671 C102.161998,238.713 101.817002,238.761 101.469,238.815 C101.120998,238.869 100.809001,238.955999 100.533,239.076 C100.256999,239.196001 100.032001,239.366999 99.858,239.589 C99.6839991,239.811001 99.597,240.113998 99.597,240.498 C99.597,240.750001 99.6479995,240.962999 99.75,241.137 C99.8520005,241.311001 99.9839992,241.451999 100.146,241.56 C100.308001,241.668001 100.496999,241.746 100.713,241.794 C100.929001,241.842 101.156999,241.866 101.397,241.866 C101.901003,241.866 102.332998,241.797001 102.693,241.659 C103.053002,241.520999 103.346999,241.347001 103.575,241.137 C103.803001,240.926999 103.970999,240.699001 104.079,240.453 C104.187001,240.206999 104.241,239.976001 104.241,239.76 L104.241,238.194 Z M108.093,233.694 L109.533,233.694 L109.533,235.656 L109.569,235.656 C109.941002,234.899996 110.396997,234.342002 110.937,233.982 C111.477003,233.621998 112.160996,233.454 112.989,233.478 L112.989,235.098 C112.376997,235.098 111.855002,235.181999 111.423,235.35 C110.990998,235.518001 110.643001,235.763998 110.379,236.088 C110.114999,236.412002 109.923001,236.804998 109.803,237.267 C109.682999,237.729002 109.623,238.259997 109.623,238.86 L109.623,243 L108.093,243 L108.093,233.694 Z M120.603,237.456 C120.579,237.095998 120.498001,236.754002 120.36,236.43 C120.221999,236.105998 120.036001,235.827001 119.802,235.593 C119.567999,235.358999 119.292002,235.173001 118.974,235.035 C118.655998,234.896999 118.305002,234.828 117.921,234.828 C117.524998,234.828 117.168002,234.896999 116.85,235.035 C116.531998,235.173001 116.259001,235.361999 116.031,235.602 C115.802999,235.842001 115.623001,236.120998 115.491,236.439 C115.358999,236.757002 115.281,237.095998 115.257,237.456 L120.603,237.456 Z M122.079,240.048 C121.874999,241.092005 121.425003,241.877997 120.729,242.406 C120.032997,242.934003 119.157005,243.198 118.101,243.198 C117.356996,243.198 116.712003,243.078001 116.166,242.838 C115.619997,242.597999 115.161002,242.262002 114.789,241.83 C114.416998,241.397998 114.138001,240.882003 113.952,240.282 C113.765999,239.681997 113.661,239.028004 113.637,238.32 C113.637,237.611996 113.744999,236.964003 113.961,236.376 C114.177001,235.787997 114.479998,235.278002 114.87,234.846 C115.260002,234.413998 115.721997,234.078001 116.256,233.838 C116.790003,233.597999 117.374997,233.478 118.011,233.478 C118.839004,233.478 119.525997,233.648998 120.072,233.991 C120.618003,234.333002 121.055998,234.767997 121.386,235.296 C121.716002,235.824003 121.943999,236.399997 122.07,237.024 C122.196001,237.648003 122.247,238.241997 122.223,238.806 L115.257,238.806 C115.245,239.214002 115.292999,239.600998 115.401,239.967 C115.509001,240.333002 115.682999,240.656999 115.923,240.939 C116.163001,241.221001 116.468998,241.445999 116.841,241.614 C117.213002,241.782001 117.650997,241.866 118.155,241.866 C118.803003,241.866 119.333998,241.716002 119.748,241.416 C120.162002,241.115998 120.434999,240.660003 120.567,240.048 L122.079,240.048 Z M128.811,233.694 L130.251,233.694 L130.251,235.17 L130.287,235.17 C130.923003,234.041994 131.930993,233.478 133.311,233.478 C133.923003,233.478 134.432998,233.561999 134.841,233.73 C135.249002,233.898001 135.578999,234.131999 135.831,234.432 C136.083001,234.732001 136.259999,235.088998 136.362,235.503 C136.464001,235.917002 136.515,236.375997 136.515,236.88 L136.515,243 L134.985,243 L134.985,236.7 C134.985,236.123997 134.817002,235.668002 134.481,235.332 C134.144998,234.995998 133.683003,234.828 133.095,234.828 C132.626998,234.828 132.222002,234.899999 131.88,235.044 C131.537998,235.188001 131.253001,235.391999 131.025,235.656 C130.796999,235.920001 130.626001,236.228998 130.512,236.583 C130.397999,236.937002 130.341,237.323998 130.341,237.744 L130.341,243 L128.811,243 L128.811,233.694 Z M139.935,238.356 C139.935,238.920003 140.009999,239.420998 140.16,239.859 C140.310001,240.297002 140.516999,240.662999 140.781,240.957 C141.045001,241.251001 141.353998,241.475999 141.708,241.632 C142.062002,241.788001 142.436998,241.866 142.833,241.866 C143.229002,241.866 143.603998,241.788001 143.958,241.632 C144.312002,241.475999 144.620999,241.251001 144.885,240.957 C145.149001,240.662999 145.355999,240.297002 145.506,239.859 C145.656001,239.420998 145.731,238.920003 145.731,238.356 C145.731,237.791997 145.656001,237.291002 145.506,236.853 C145.355999,236.414998 145.149001,236.046001 144.885,235.746 C144.620999,235.445999 144.312002,235.218001 143.958,235.062 C143.603998,234.905999 143.229002,234.828 142.833,234.828 C142.436998,234.828 142.062002,234.905999 141.708,235.062 C141.353998,235.218001 141.045001,235.445999 140.781,235.746 C140.516999,236.046001 140.310001,236.414998 140.16,236.853 C140.009999,237.291002 139.935,237.791997 139.935,238.356 Z M138.315,238.356 C138.315,237.671997 138.410999,237.033003 138.603,236.439 C138.795001,235.844997 139.082998,235.329002 139.467,234.891 C139.851002,234.452998 140.324997,234.108001 140.889,233.856 C141.453003,233.603999 142.100996,233.478 142.833,233.478 C143.577004,233.478 144.227997,233.603999 144.786,233.856 C145.344003,234.108001 145.814998,234.452998 146.199,234.891 C146.583002,235.329002 146.870999,235.844997 147.063,236.439 C147.255001,237.033003 147.351,237.671997 147.351,238.356 C147.351,239.040003 147.255001,239.675997 147.063,240.264 C146.870999,240.852003 146.583002,241.364998 146.199,241.803 C145.814998,242.241002 145.344003,242.582999 144.786,242.829 C144.227997,243.075001 143.577004,243.198 142.833,243.198 C142.100996,243.198 141.453003,243.075001 140.889,242.829 C140.324997,242.582999 139.851002,242.241002 139.467,241.803 C139.082998,241.364998 138.795001,240.852003 138.603,240.264 C138.410999,239.675997 138.315,239.040003 138.315,238.356 Z M162.399,242.964 C162.134999,243.120001 161.769002,243.198 161.301,243.198 C160.904998,243.198 160.590001,243.087001 160.356,242.865 C160.121999,242.642999 160.005,242.280003 160.005,241.776 C159.584998,242.280003 159.096003,242.642999 158.538,242.865 C157.979997,243.087001 157.377003,243.198 156.729,243.198 C156.308998,243.198 155.910002,243.15 155.532,243.054 C155.153998,242.958 154.827001,242.808001 154.551,242.604 C154.274999,242.399999 154.056001,242.133002 153.894,241.803 C153.731999,241.472998 153.651,241.074002 153.651,240.606 C153.651,240.077997 153.740999,239.646002 153.921,239.31 C154.101001,238.973998 154.337999,238.701001 154.632,238.491 C154.926001,238.280999 155.261998,238.122001 155.64,238.014 C156.018002,237.905999 156.404998,237.816 156.801,237.744 C157.221002,237.66 157.619998,237.597 157.998,237.555 C158.376002,237.513 158.708999,237.453 158.997,237.375 C159.285001,237.297 159.512999,237.183001 159.681,237.033 C159.849001,236.882999 159.933,236.664001 159.933,236.376 C159.933,236.039998 159.870001,235.770001 159.744,235.566 C159.617999,235.361999 159.456001,235.206001 159.258,235.098 C159.059999,234.989999 158.838001,234.918 158.592,234.882 C158.345999,234.846 158.103001,234.828 157.863,234.828 C157.214997,234.828 156.675002,234.950999 156.243,235.197 C155.810998,235.443001 155.577,235.907997 155.541,236.592 L154.011,236.592 C154.035,236.015997 154.154999,235.530002 154.371,235.134 C154.587001,234.737998 154.874998,234.417001 155.235,234.171 C155.595002,233.924999 156.005998,233.748001 156.468,233.64 C156.930002,233.531999 157.424997,233.478 157.953,233.478 C158.373002,233.478 158.789998,233.508 159.204,233.568 C159.618002,233.628 159.992998,233.750999 160.329,233.937 C160.665002,234.123001 160.934999,234.383998 161.139,234.72 C161.343001,235.056002 161.445,235.493997 161.445,236.034 L161.445,240.822 C161.445,241.182002 161.466,241.445999 161.508,241.614 C161.55,241.782001 161.690999,241.866 161.931,241.866 C162.063001,241.866 162.218999,241.836 162.399,241.776 L162.399,242.964 Z M159.915,238.194 C159.722999,238.338001 159.471002,238.443 159.159,238.509 C158.846998,238.575 158.520002,238.629 158.178,238.671 C157.835998,238.713 157.491002,238.761 157.143,238.815 C156.794998,238.869 156.483001,238.955999 156.207,239.076 C155.930999,239.196001 155.706001,239.366999 155.532,239.589 C155.357999,239.811001 155.271,240.113998 155.271,240.498 C155.271,240.750001 155.321999,240.962999 155.424,241.137 C155.526001,241.311001 155.657999,241.451999 155.82,241.56 C155.982001,241.668001 156.170999,241.746 156.387,241.794 C156.603001,241.842 156.830999,241.866 157.071,241.866 C157.575003,241.866 158.006998,241.797001 158.367,241.659 C158.727002,241.520999 159.020999,241.347001 159.249,241.137 C159.477001,240.926999 159.644999,240.699001 159.753,240.453 C159.861001,240.206999 159.915,239.976001 159.915,239.76 L159.915,238.194 Z M171.525,243 L170.085,243 L170.085,241.524 L170.049,241.524 C169.724998,242.100003 169.311003,242.522999 168.807,242.793 C168.302997,243.063001 167.709003,243.198 167.025,243.198 C166.412997,243.198 165.903002,243.117001 165.495,242.955 C165.086998,242.792999 164.757001,242.562002 164.505,242.262 C164.252999,241.961998 164.076001,241.605002 163.974,241.191 C163.871999,240.776998 163.821,240.318003 163.821,239.814 L163.821,233.694 L165.351,233.694 L165.351,239.994 C165.351,240.570003 165.518998,241.025998 165.855,241.362 C166.191002,241.698002 166.652997,241.866 167.241,241.866 C167.709002,241.866 168.113998,241.794001 168.456,241.65 C168.798002,241.505999 169.082999,241.302001 169.311,241.038 C169.539001,240.773999 169.709999,240.465002 169.824,240.111 C169.938001,239.756998 169.995,239.370002 169.995,238.95 L169.995,233.694 L171.525,233.694 L171.525,243 Z M180.147,236.682 C180.026999,236.093997 179.775002,235.638002 179.391,235.314 C179.006998,234.989998 178.491003,234.828 177.843,234.828 C177.290997,234.828 176.829002,234.929999 176.457,235.134 C176.084998,235.338001 175.788001,235.607998 175.566,235.944 C175.343999,236.280002 175.185,236.666998 175.089,237.105 C174.993,237.543002 174.945,237.995998 174.945,238.464 C174.945,238.896002 174.995999,239.315998 175.098,239.724 C175.200001,240.132002 175.358999,240.494998 175.575,240.813 C175.791001,241.131002 176.072998,241.385999 176.421,241.578 C176.769002,241.770001 177.182998,241.866 177.663,241.866 C178.419004,241.866 179.009998,241.668002 179.436,241.272 C179.862002,240.875998 180.123,240.318004 180.219,239.598 L181.785,239.598 C181.616999,240.750006 181.188003,241.637997 180.498,242.262 C179.807997,242.886003 178.869006,243.198 177.681,243.198 C176.972996,243.198 176.346003,243.084001 175.8,242.856 C175.253997,242.627999 174.798002,242.304002 174.432,241.884 C174.065998,241.463998 173.790001,240.963003 173.604,240.381 C173.417999,239.798997 173.325,239.160003 173.325,238.464 C173.325,237.767997 173.414999,237.117003 173.595,236.511 C173.775001,235.904997 174.047998,235.377002 174.414,234.927 C174.780002,234.476998 175.238997,234.123001 175.791,233.865 C176.343003,233.606999 176.984996,233.478 177.717,233.478 C178.245003,233.478 178.739998,233.540999 179.202,233.667 C179.664002,233.793001 180.071998,233.987999 180.426,234.252 C180.780002,234.516001 181.070999,234.848998 181.299,235.251 C181.527001,235.653002 181.671,236.129997 181.731,236.682 L180.147,236.682 Z M185.619,233.694 L187.473,233.694 L187.473,235.044 L185.619,235.044 L185.619,240.822 C185.619,241.002001 185.634,241.145999 185.664,241.254 C185.694,241.362001 185.751,241.446 185.835,241.506 C185.919,241.566 186.035999,241.605 186.186,241.623 C186.336001,241.641 186.530999,241.65 186.771,241.65 L187.473,241.65 L187.473,243 L186.303,243 C185.906998,243 185.568001,242.973 185.286,242.919 C185.003999,242.865 184.776001,242.766001 184.602,242.622 C184.427999,242.477999 184.299,242.274001 184.215,242.01 C184.131,241.745999 184.089,241.398002 184.089,240.966 L184.089,235.044 L182.505,235.044 L182.505,233.694 L184.089,233.694 L184.089,230.904 L185.619,230.904 L185.619,233.694 Z M190.785,232.02 L189.255,232.02 L189.255,230.148 L190.785,230.148 L190.785,232.02 Z M189.255,233.694 L190.785,233.694 L190.785,243 L189.255,243 L189.255,233.694 Z M194.277,238.356 C194.277,238.920003 194.351999,239.420998 194.502,239.859 C194.652001,240.297002 194.858999,240.662999 195.123,240.957 C195.387001,241.251001 195.695998,241.475999 196.05,241.632 C196.404002,241.788001 196.778998,241.866 197.175,241.866 C197.571002,241.866 197.945998,241.788001 198.3,241.632 C198.654002,241.475999 198.962999,241.251001 199.227,240.957 C199.491001,240.662999 199.697999,240.297002 199.848,239.859 C199.998001,239.420998 200.073,238.920003 200.073,238.356 C200.073,237.791997 199.998001,237.291002 199.848,236.853 C199.697999,236.414998 199.491001,236.046001 199.227,235.746 C198.962999,235.445999 198.654002,235.218001 198.3,235.062 C197.945998,234.905999 197.571002,234.828 197.175,234.828 C196.778998,234.828 196.404002,234.905999 196.05,235.062 C195.695998,235.218001 195.387001,235.445999 195.123,235.746 C194.858999,236.046001 194.652001,236.414998 194.502,236.853 C194.351999,237.291002 194.277,237.791997 194.277,238.356 Z M192.657,238.356 C192.657,237.671997 192.752999,237.033003 192.945,236.439 C193.137001,235.844997 193.424998,235.329002 193.809,234.891 C194.193002,234.452998 194.666997,234.108001 195.231,233.856 C195.795003,233.603999 196.442996,233.478 197.175,233.478 C197.919004,233.478 198.569997,233.603999 199.128,233.856 C199.686003,234.108001 200.156998,234.452998 200.541,234.891 C200.925002,235.329002 201.212999,235.844997 201.405,236.439 C201.597001,237.033003 201.693,237.671997 201.693,238.356 C201.693,239.040003 201.597001,239.675997 201.405,240.264 C201.212999,240.852003 200.925002,241.364998 200.541,241.803 C200.156998,242.241002 199.686003,242.582999 199.128,242.829 C198.569997,243.075001 197.919004,243.198 197.175,243.198 C196.442996,243.198 195.795003,243.075001 195.231,242.829 C194.666997,242.582999 194.193002,242.241002 193.809,241.803 C193.424998,241.364998 193.137001,240.852003 192.945,240.264 C192.752999,239.675997 192.657,239.040003 192.657,238.356 Z M203.493,233.694 L204.933,233.694 L204.933,235.17 L204.969,235.17 C205.605003,234.041994 206.612993,233.478 207.993,233.478 C208.605003,233.478 209.114998,233.561999 209.523,233.73 C209.931002,233.898001 210.260999,234.131999 210.513,234.432 C210.765001,234.732001 210.941999,235.088998 211.044,235.503 C211.146001,235.917002 211.197,236.375997 211.197,236.88 L211.197,243 L209.667,243 L209.667,236.7 C209.667,236.123997 209.499002,235.668002 209.163,235.332 C208.826998,234.995998 208.365003,234.828 207.777,234.828 C207.308998,234.828 206.904002,234.899999 206.562,235.044 C206.219998,235.188001 205.935001,235.391999 205.707,235.656 C205.478999,235.920001 205.308001,236.228998 205.194,236.583 C205.079999,236.937002 205.023,237.323998 205.023,237.744 L205.023,243 L203.493,243 L203.493,233.694 Z M214.437,240.066 C214.449,240.402002 214.526999,240.686999 214.671,240.921 C214.815001,241.155001 215.003999,241.340999 215.238,241.479 C215.472001,241.617001 215.735999,241.716 216.03,241.776 C216.324001,241.836 216.626998,241.866 216.939,241.866 C217.179001,241.866 217.430999,241.848 217.695,241.812 C217.959001,241.776 218.201999,241.71 218.424,241.614 C218.646001,241.518 218.828999,241.377001 218.973,241.191 C219.117001,241.004999 219.189,240.768001 219.189,240.48 C219.189,240.083998 219.039001,239.784001 218.739,239.58 C218.438998,239.375999 218.064002,239.211001 217.614,239.085 C217.163998,238.958999 216.675003,238.845001 216.147,238.743 C215.618997,238.640999 215.130002,238.497001 214.68,238.311 C214.229998,238.124999 213.855001,237.864002 213.555,237.528 C213.254998,237.191998 213.105,236.724003 213.105,236.124 C213.105,235.655998 213.209999,235.254002 213.42,234.918 C213.630001,234.581998 213.899998,234.309001 214.23,234.099 C214.560002,233.888999 214.931998,233.733001 215.346,233.631 C215.760002,233.528999 216.170998,233.478 216.579,233.478 C217.107003,233.478 217.592998,233.523 218.037,233.613 C218.481002,233.703 218.873998,233.858999 219.216,234.081 C219.558002,234.303001 219.830999,234.602998 220.035,234.981 C220.239001,235.359002 220.359,235.829997 220.395,236.394 L218.865,236.394 C218.841,236.093998 218.763001,235.845001 218.631,235.647 C218.498999,235.448999 218.331001,235.290001 218.127,235.17 C217.922999,235.049999 217.698001,234.963 217.452,234.909 C217.205999,234.855 216.957001,234.828 216.705,234.828 C216.476999,234.828 216.246001,234.846 216.012,234.882 C215.777999,234.918 215.565001,234.981 215.373,235.071 C215.180999,235.161 215.025001,235.280999 214.905,235.431 C214.784999,235.581001 214.725,235.775999 214.725,236.016 C214.725,236.280001 214.817999,236.498999 215.004,236.673 C215.190001,236.847001 215.426999,236.990999 215.715,237.105 C216.003001,237.219001 216.326998,237.315 216.687,237.393 C217.047002,237.471 217.406998,237.552 217.767,237.636 C218.151002,237.72 218.525998,237.821999 218.892,237.942 C219.258002,238.062001 219.581999,238.220999 219.864,238.419 C220.146001,238.617001 220.373999,238.865998 220.548,239.166 C220.722001,239.466002 220.809,239.837998 220.809,240.282 C220.809,240.846003 220.692001,241.313998 220.458,241.686 C220.223999,242.058002 219.918002,242.357999 219.54,242.586 C219.161998,242.814001 218.736002,242.973 218.262,243.063 C217.787998,243.153 217.317002,243.198 216.849,243.198 C216.332997,243.198 215.841002,243.144001 215.373,243.036 C214.904998,242.927999 214.491002,242.751001 214.131,242.505 C213.770998,242.258999 213.483001,241.935002 213.267,241.533 C213.050999,241.130998 212.931,240.642003 212.907,240.066 L214.437,240.066 Z M227.451,233.694 L228.891,233.694 L228.891,235.656 L228.927,235.656 C229.299002,234.899996 229.754997,234.342002 230.295,233.982 C230.835003,233.621998 231.518996,233.454 232.347,233.478 L232.347,235.098 C231.734997,235.098 231.213002,235.181999 230.781,235.35 C230.348998,235.518001 230.001001,235.763998 229.737,236.088 C229.472999,236.412002 229.281001,236.804998 229.161,237.267 C229.040999,237.729002 228.981,238.259997 228.981,238.86 L228.981,243 L227.451,243 L227.451,233.694 Z M235.119,232.02 L233.589,232.02 L233.589,230.148 L235.119,230.148 L235.119,232.02 Z M233.589,233.694 L235.119,233.694 L235.119,243 L233.589,243 L233.589,233.694 Z M245.523,242.208 C245.523,243.732008 245.175003,244.871996 244.479,245.628 C243.782997,246.384004 242.691007,246.762 241.203,246.762 C240.770998,246.762 240.330002,246.714 239.88,246.618 C239.429998,246.522 239.022002,246.366001 238.656,246.15 C238.289998,245.933999 237.987001,245.652002 237.747,245.304 C237.506999,244.955998 237.375,244.530003 237.351,244.026 L238.881,244.026 C238.893,244.302001 238.979999,244.535999 239.142,244.728 C239.304001,244.920001 239.501999,245.075999 239.736,245.196 C239.970001,245.316001 240.224999,245.403 240.501,245.457 C240.777001,245.511 241.040999,245.538 241.293,245.538 C241.797003,245.538 242.222998,245.451001 242.571,245.277 C242.919002,245.102999 243.206999,244.863002 243.435,244.557 C243.663001,244.250998 243.827999,243.882002 243.93,243.45 C244.032001,243.017998 244.083,242.544003 244.083,242.028 L244.083,241.416 L244.047,241.416 C243.782999,241.992003 243.384003,242.414999 242.85,242.685 C242.315997,242.955001 241.749003,243.09 241.149,243.09 C240.452997,243.09 239.847003,242.964001 239.331,242.712 C238.814997,242.459999 238.383002,242.121002 238.035,241.695 C237.686998,241.268998 237.426001,240.771003 237.252,240.201 C237.077999,239.630997 236.991,239.028003 236.991,238.392 C236.991,237.839997 237.062999,237.273003 237.207,236.691 C237.351001,236.108997 237.590998,235.581002 237.927,235.107 C238.263002,234.632998 238.706997,234.243002 239.259,233.937 C239.811003,233.630998 240.488996,233.478 241.293,233.478 C241.881003,233.478 242.420998,233.606999 242.913,233.865 C243.405002,234.123001 243.788999,234.509997 244.065,235.026 L244.083,235.026 L244.083,233.694 L245.523,233.694 L245.523,242.208 Z M241.239,241.758 C241.743003,241.758 242.171998,241.653001 242.526,241.443 C242.880002,241.232999 243.164999,240.957002 243.381,240.615 C243.597001,240.272998 243.755999,239.886002 243.858,239.454 C243.960001,239.021998 244.011,238.590002 244.011,238.158 C244.011,237.749998 243.963,237.348002 243.867,236.952 C243.771,236.555998 243.618001,236.199002 243.408,235.881 C243.197999,235.562998 242.925002,235.308001 242.589,235.116 C242.252998,234.923999 241.845002,234.828 241.365,234.828 C240.872998,234.828 240.453002,234.920999 240.105,235.107 C239.756998,235.293001 239.472001,235.541998 239.25,235.854 C239.027999,236.166002 238.866001,236.525998 238.764,236.934 C238.661999,237.342002 238.611,237.767998 238.611,238.212 C238.611,238.632002 238.653,239.051998 238.737,239.472 C238.821,239.892002 238.964999,240.272998 239.169,240.615 C239.373001,240.957002 239.642998,241.232999 239.979,241.443 C240.315002,241.653001 240.734997,241.758 241.239,241.758 Z M247.827,230.148 L249.357,230.148 L249.357,235.062 L249.393,235.062 C249.513001,234.773999 249.680999,234.531001 249.897,234.333 C250.113001,234.134999 250.355999,233.973001 250.626,233.847 C250.896001,233.720999 251.177999,233.628 251.472,233.568 C251.766001,233.508 252.050999,233.478 252.327,233.478 C252.939003,233.478 253.448998,233.561999 253.857,233.73 C254.265002,233.898001 254.594999,234.131999 254.847,234.432 C255.099001,234.732001 255.275999,235.088998 255.378,235.503 C255.480001,235.917002 255.531,236.375997 255.531,236.88 L255.531,243 L254.001,243 L254.001,236.7 C254.001,236.123997 253.833002,235.668002 253.497,235.332 C253.160998,234.995998 252.699003,234.828 252.111,234.828 C251.642998,234.828 251.238002,234.899999 250.896,235.044 C250.553998,235.188001 250.269001,235.391999 250.041,235.656 C249.812999,235.920001 249.642001,236.228998 249.528,236.583 C249.413999,236.937002 249.357,237.323998 249.357,237.744 L249.357,243 L247.827,243 L247.827,230.148 Z M259.959,233.694 L261.813,233.694 L261.813,235.044 L259.959,235.044 L259.959,240.822 C259.959,241.002001 259.974,241.145999 260.004,241.254 C260.034,241.362001 260.091,241.446 260.175,241.506 C260.259,241.566 260.375999,241.605 260.526,241.623 C260.676001,241.641 260.870999,241.65 261.111,241.65 L261.813,241.65 L261.813,243 L260.643,243 C260.246998,243 259.908001,242.973 259.626,242.919 C259.343999,242.865 259.116001,242.766001 258.942,242.622 C258.767999,242.477999 258.639,242.274001 258.555,242.01 C258.471,241.745999 258.429,241.398002 258.429,240.966 L258.429,235.044 L256.845,235.044 L256.845,233.694 L258.429,233.694 L258.429,230.904 L259.959,230.904 L259.959,233.694 Z M268.509,233.694 L269.949,233.694 L269.949,235.17 L269.985,235.17 C270.621003,234.041994 271.628993,233.478 273.009,233.478 C273.621003,233.478 274.130998,233.561999 274.539,233.73 C274.947002,233.898001 275.276999,234.131999 275.529,234.432 C275.781001,234.732001 275.957999,235.088998 276.06,235.503 C276.162001,235.917002 276.213,236.375997 276.213,236.88 L276.213,243 L274.683,243 L274.683,236.7 C274.683,236.123997 274.515002,235.668002 274.179,235.332 C273.842998,234.995998 273.381003,234.828 272.793,234.828 C272.324998,234.828 271.920002,234.899999 271.578,235.044 C271.235998,235.188001 270.951001,235.391999 270.723,235.656 C270.494999,235.920001 270.324001,236.228998 270.21,236.583 C270.095999,236.937002 270.039,237.323998 270.039,237.744 L270.039,243 L268.509,243 L268.509,233.694 Z M279.633,238.356 C279.633,238.920003 279.707999,239.420998 279.858,239.859 C280.008001,240.297002 280.214999,240.662999 280.479,240.957 C280.743001,241.251001 281.051998,241.475999 281.406,241.632 C281.760002,241.788001 282.134998,241.866 282.531,241.866 C282.927002,241.866 283.301998,241.788001 283.656,241.632 C284.010002,241.475999 284.318999,241.251001 284.583,240.957 C284.847001,240.662999 285.053999,240.297002 285.204,239.859 C285.354001,239.420998 285.429,238.920003 285.429,238.356 C285.429,237.791997 285.354001,237.291002 285.204,236.853 C285.053999,236.414998 284.847001,236.046001 284.583,235.746 C284.318999,235.445999 284.010002,235.218001 283.656,235.062 C283.301998,234.905999 282.927002,234.828 282.531,234.828 C282.134998,234.828 281.760002,234.905999 281.406,235.062 C281.051998,235.218001 280.743001,235.445999 280.479,235.746 C280.214999,236.046001 280.008001,236.414998 279.858,236.853 C279.707999,237.291002 279.633,237.791997 279.633,238.356 Z M278.013,238.356 C278.013,237.671997 278.108999,237.033003 278.301,236.439 C278.493001,235.844997 278.780998,235.329002 279.165,234.891 C279.549002,234.452998 280.022997,234.108001 280.587,233.856 C281.151003,233.603999 281.798996,233.478 282.531,233.478 C283.275004,233.478 283.925997,233.603999 284.484,233.856 C285.042003,234.108001 285.512998,234.452998 285.897,234.891 C286.281002,235.329002 286.568999,235.844997 286.761,236.439 C286.953001,237.033003 287.049,237.671997 287.049,238.356 C287.049,239.040003 286.953001,239.675997 286.761,240.264 C286.568999,240.852003 286.281002,241.364998 285.897,241.803 C285.512998,242.241002 285.042003,242.582999 284.484,242.829 C283.925997,243.075001 283.275004,243.198 282.531,243.198 C281.798996,243.198 281.151003,243.075001 280.587,242.829 C280.022997,242.582999 279.549002,242.241002 279.165,241.803 C278.780998,241.364998 278.493001,240.852003 278.301,240.264 C278.108999,239.675997 278.013,239.040003 278.013,238.356 Z M298.065,243 L296.445,243 L294.555,235.602 L294.519,235.602 L292.647,243 L290.991,243 L288.003,233.694 L289.695,233.694 L291.801,241.308 L291.837,241.308 L293.709,233.694 L295.383,233.694 L297.327,241.308 L297.363,241.308 L299.451,233.694 L301.035,233.694 L298.065,243 Z M65.343,267.276 L78.663,267.276 L78.663,268.716 L65.343,268.716 L65.343,267.276 Z M96.375,273 L94.755,273 L92.865,265.602 L92.829,265.602 L90.957,273 L89.301,273 L86.313,263.694 L88.005,263.694 L90.111,271.308 L90.147,271.308 L92.019,263.694 L93.693,263.694 L95.637,271.308 L95.673,271.308 L97.761,263.694 L99.345,263.694 L96.375,273 Z M107.265,267.456 C107.241,267.095998 107.160001,266.754002 107.022,266.43 C106.883999,266.105998 106.698001,265.827001 106.464,265.593 C106.229999,265.358999 105.954002,265.173001 105.636,265.035 C105.317998,264.896999 104.967002,264.828 104.583,264.828 C104.186998,264.828 103.830002,264.896999 103.512,265.035 C103.193998,265.173001 102.921001,265.361999 102.693,265.602 C102.464999,265.842001 102.285001,266.120998 102.153,266.439 C102.020999,266.757002 101.943,267.095998 101.919,267.456 L107.265,267.456 Z M108.741,270.048 C108.536999,271.092005 108.087003,271.877997 107.391,272.406 C106.694997,272.934003 105.819005,273.198 104.763,273.198 C104.018996,273.198 103.374003,273.078001 102.828,272.838 C102.281997,272.597999 101.823002,272.262002 101.451,271.83 C101.078998,271.397998 100.800001,270.882003 100.614,270.282 C100.427999,269.681997 100.323,269.028004 100.299,268.32 C100.299,267.611996 100.406999,266.964003 100.623,266.376 C100.839001,265.787997 101.141998,265.278002 101.532,264.846 C101.922002,264.413998 102.383997,264.078001 102.918,263.838 C103.452003,263.597999 104.036997,263.478 104.673,263.478 C105.501004,263.478 106.187997,263.648998 106.734,263.991 C107.280003,264.333002 107.717998,264.767997 108.048,265.296 C108.378002,265.824003 108.605999,266.399997 108.732,267.024 C108.858001,267.648003 108.909,268.241997 108.885,268.806 L101.919,268.806 C101.907,269.214002 101.954999,269.600998 102.063,269.967 C102.171001,270.333002 102.344999,270.656999 102.585,270.939 C102.825001,271.221001 103.130998,271.445999 103.503,271.614 C103.875002,271.782001 104.312997,271.866 104.817,271.866 C105.465003,271.866 105.995998,271.716002 106.41,271.416 C106.824002,271.115998 107.096999,270.660003 107.229,270.048 L108.741,270.048 Z M110.811,260.148 L112.809,260.148 L112.809,262.146 C112.809,262.506002 112.77,262.844998 112.692,263.163 C112.614,263.481002 112.494001,263.759999 112.332,264 C112.169999,264.240001 111.966001,264.431999 111.72,264.576 C111.473999,264.720001 111.177002,264.792 110.829,264.792 L110.829,263.892 C111.033001,263.892 111.200999,263.841001 111.333,263.739 C111.465001,263.636999 111.573,263.502001 111.657,263.334 C111.741,263.165999 111.798,262.977001 111.828,262.767 C111.858,262.556999 111.873,262.350001 111.873,262.146 L110.811,262.146 L110.811,260.148 Z M115.419,263.694 L116.859,263.694 L116.859,265.656 L116.895,265.656 C117.267002,264.899996 117.722997,264.342002 118.263,263.982 C118.803003,263.621998 119.486996,263.454 120.315,263.478 L120.315,265.098 C119.702997,265.098 119.181002,265.181999 118.749,265.35 C118.316998,265.518001 117.969001,265.763998 117.705,266.088 C117.440999,266.412002 117.249001,266.804998 117.129,267.267 C117.008999,267.729002 116.949,268.259997 116.949,268.86 L116.949,273 L115.419,273 L115.419,263.694 Z M127.929,267.456 C127.905,267.095998 127.824001,266.754002 127.686,266.43 C127.547999,266.105998 127.362001,265.827001 127.128,265.593 C126.893999,265.358999 126.618002,265.173001 126.3,265.035 C125.981998,264.896999 125.631002,264.828 125.247,264.828 C124.850998,264.828 124.494002,264.896999 124.176,265.035 C123.857998,265.173001 123.585001,265.361999 123.357,265.602 C123.128999,265.842001 122.949001,266.120998 122.817,266.439 C122.684999,266.757002 122.607,267.095998 122.583,267.456 L127.929,267.456 Z M129.405,270.048 C129.200999,271.092005 128.751003,271.877997 128.055,272.406 C127.358997,272.934003 126.483005,273.198 125.427,273.198 C124.682996,273.198 124.038003,273.078001 123.492,272.838 C122.945997,272.597999 122.487002,272.262002 122.115,271.83 C121.742998,271.397998 121.464001,270.882003 121.278,270.282 C121.091999,269.681997 120.987,269.028004 120.963,268.32 C120.963,267.611996 121.070999,266.964003 121.287,266.376 C121.503001,265.787997 121.805998,265.278002 122.196,264.846 C122.586002,264.413998 123.047997,264.078001 123.582,263.838 C124.116003,263.597999 124.700997,263.478 125.337,263.478 C126.165004,263.478 126.851997,263.648998 127.398,263.991 C127.944003,264.333002 128.381998,264.767997 128.712,265.296 C129.042002,265.824003 129.269999,266.399997 129.396,267.024 C129.522001,267.648003 129.573,268.241997 129.549,268.806 L122.583,268.806 C122.571,269.214002 122.618999,269.600998 122.727,269.967 C122.835001,270.333002 123.008999,270.656999 123.249,270.939 C123.489001,271.221001 123.794998,271.445999 124.167,271.614 C124.539002,271.782001 124.976997,271.866 125.481,271.866 C126.129003,271.866 126.659998,271.716002 127.074,271.416 C127.488002,271.115998 127.760999,270.660003 127.893,270.048 L129.405,270.048 Z M142.455,266.682 C142.334999,266.093997 142.083002,265.638002 141.699,265.314 C141.314998,264.989998 140.799003,264.828 140.151,264.828 C139.598997,264.828 139.137002,264.929999 138.765,265.134 C138.392998,265.338001 138.096001,265.607998 137.874,265.944 C137.651999,266.280002 137.493,266.666998 137.397,267.105 C137.301,267.543002 137.253,267.995998 137.253,268.464 C137.253,268.896002 137.303999,269.315998 137.406,269.724 C137.508001,270.132002 137.666999,270.494998 137.883,270.813 C138.099001,271.131002 138.380998,271.385999 138.729,271.578 C139.077002,271.770001 139.490998,271.866 139.971,271.866 C140.727004,271.866 141.317998,271.668002 141.744,271.272 C142.170002,270.875998 142.431,270.318004 142.527,269.598 L144.093,269.598 C143.924999,270.750006 143.496003,271.637997 142.806,272.262 C142.115997,272.886003 141.177006,273.198 139.989,273.198 C139.280996,273.198 138.654003,273.084001 138.108,272.856 C137.561997,272.627999 137.106002,272.304002 136.74,271.884 C136.373998,271.463998 136.098001,270.963003 135.912,270.381 C135.725999,269.798997 135.633,269.160003 135.633,268.464 C135.633,267.767997 135.722999,267.117003 135.903,266.511 C136.083001,265.904997 136.355998,265.377002 136.722,264.927 C137.088002,264.476998 137.546997,264.123001 138.099,263.865 C138.651003,263.606999 139.292996,263.478 140.025,263.478 C140.553003,263.478 141.047998,263.540999 141.51,263.667 C141.972002,263.793001 142.379998,263.987999 142.734,264.252 C143.088002,264.516001 143.378999,264.848998 143.607,265.251 C143.835001,265.653002 143.979,266.129997 144.039,266.682 L142.455,266.682 Z M145.893,260.148 L147.423,260.148 L147.423,273 L145.893,273 L145.893,260.148 Z M150.915,268.356 C150.915,268.920003 150.989999,269.420998 151.14,269.859 C151.290001,270.297002 151.496999,270.662999 151.761,270.957 C152.025001,271.251001 152.333998,271.475999 152.688,271.632 C153.042002,271.788001 153.416998,271.866 153.813,271.866 C154.209002,271.866 154.583998,271.788001 154.938,271.632 C155.292002,271.475999 155.600999,271.251001 155.865,270.957 C156.129001,270.662999 156.335999,270.297002 156.486,269.859 C156.636001,269.420998 156.711,268.920003 156.711,268.356 C156.711,267.791997 156.636001,267.291002 156.486,266.853 C156.335999,266.414998 156.129001,266.046001 155.865,265.746 C155.600999,265.445998 155.292002,265.218001 154.938,265.062 C154.583998,264.905999 154.209002,264.828 153.813,264.828 C153.416998,264.828 153.042002,264.905999 152.688,265.062 C152.333998,265.218001 152.025001,265.445998 151.761,265.746 C151.496999,266.046001 151.290001,266.414998 151.14,266.853 C150.989999,267.291002 150.915,267.791997 150.915,268.356 Z M149.295,268.356 C149.295,267.671997 149.390999,267.033003 149.583,266.439 C149.775001,265.844997 150.062998,265.329002 150.447,264.891 C150.831002,264.452998 151.304997,264.108001 151.869,263.856 C152.433003,263.603999 153.080996,263.478 153.813,263.478 C154.557004,263.478 155.207997,263.603999 155.766,263.856 C156.324003,264.108001 156.794998,264.452998 157.179,264.891 C157.563002,265.329002 157.850999,265.844997 158.043,266.439 C158.235001,267.033003 158.331,267.671997 158.331,268.356 C158.331,269.040003 158.235001,269.675997 158.043,270.264 C157.850999,270.852003 157.563002,271.364998 157.179,271.803 C156.794998,272.241002 156.324003,272.582999 155.766,272.829 C155.207997,273.075001 154.557004,273.198 153.813,273.198 C153.080996,273.198 152.433003,273.075001 151.869,272.829 C151.304997,272.582999 150.831002,272.241002 150.447,271.803 C150.062998,271.364998 149.775001,270.852003 149.583,270.264 C149.390999,269.675997 149.295,269.040003 149.295,268.356 Z M161.067,270.066 C161.079,270.402002 161.156999,270.686999 161.301,270.921 C161.445001,271.155001 161.633999,271.340999 161.868,271.479 C162.102001,271.617001 162.365999,271.716 162.66,271.776 C162.954001,271.836 163.256998,271.866 163.569,271.866 C163.809001,271.866 164.060999,271.848 164.325,271.812 C164.589001,271.776 164.831999,271.71 165.054,271.614 C165.276001,271.518 165.458999,271.377001 165.603,271.191 C165.747001,271.004999 165.819,270.768001 165.819,270.48 C165.819,270.083998 165.669002,269.784001 165.369,269.58 C165.068999,269.375999 164.694002,269.211001 164.244,269.085 C163.793998,268.958999 163.305003,268.845001 162.777,268.743 C162.248997,268.640999 161.760002,268.497001 161.31,268.311 C160.859998,268.124999 160.485002,267.864002 160.185,267.528 C159.884998,267.191998 159.735,266.724003 159.735,266.124 C159.735,265.655998 159.839999,265.254002 160.05,264.918 C160.260001,264.581998 160.529998,264.309001 160.86,264.099 C161.190002,263.888999 161.561998,263.733001 161.976,263.631 C162.390002,263.528999 162.800998,263.478 163.209,263.478 C163.737003,263.478 164.222998,263.523 164.667,263.613 C165.111002,263.703 165.503998,263.858999 165.846,264.081 C166.188002,264.303001 166.460999,264.602998 166.665,264.981 C166.869001,265.359002 166.989,265.829997 167.025,266.394 L165.495,266.394 C165.471,266.093998 165.393001,265.845001 165.261,265.647 C165.128999,265.448999 164.961001,265.290001 164.757,265.17 C164.552999,265.049999 164.328001,264.963 164.082,264.909 C163.835999,264.855 163.587001,264.828 163.335,264.828 C163.106999,264.828 162.876001,264.846 162.642,264.882 C162.407999,264.918 162.195001,264.981 162.003,265.071 C161.810999,265.161 161.655001,265.280999 161.535,265.431 C161.414999,265.581001 161.355,265.775999 161.355,266.016 C161.355,266.280001 161.447999,266.498999 161.634,266.673 C161.820001,266.847001 162.056999,266.990999 162.345,267.105 C162.633001,267.219001 162.956998,267.315 163.317,267.393 C163.677002,267.471 164.036998,267.552 164.397,267.636 C164.781002,267.72 165.155998,267.821999 165.522,267.942 C165.888002,268.062001 166.211999,268.220999 166.494,268.419 C166.776001,268.617001 167.003999,268.865998 167.178,269.166 C167.352001,269.466002 167.439,269.837998 167.439,270.282 C167.439,270.846003 167.322001,271.313998 167.088,271.686 C166.853999,272.058002 166.548002,272.357999 166.17,272.586 C165.791998,272.814001 165.366002,272.973 164.892,273.063 C164.417998,273.153 163.947002,273.198 163.479,273.198 C162.962997,273.198 162.471002,273.144001 162.003,273.036 C161.534998,272.927999 161.121002,272.751001 160.761,272.505 C160.400998,272.258999 160.113001,271.935002 159.897,271.533 C159.680999,271.130998 159.561,270.642003 159.537,270.066 L161.067,270.066 Z M175.593,267.456 C175.569,267.095998 175.488001,266.754002 175.35,266.43 C175.211999,266.105998 175.026001,265.827001 174.792,265.593 C174.557999,265.358999 174.282002,265.173001 173.964,265.035 C173.645998,264.896999 173.295002,264.828 172.911,264.828 C172.514998,264.828 172.158002,264.896999 171.84,265.035 C171.521998,265.173001 171.249001,265.361999 171.021,265.602 C170.792999,265.842001 170.613001,266.120998 170.481,266.439 C170.348999,266.757002 170.271,267.095998 170.247,267.456 L175.593,267.456 Z M177.069,270.048 C176.864999,271.092005 176.415003,271.877997 175.719,272.406 C175.022997,272.934003 174.147005,273.198 173.091,273.198 C172.346996,273.198 171.702003,273.078001 171.156,272.838 C170.609997,272.597999 170.151002,272.262002 169.779,271.83 C169.406998,271.397998 169.128001,270.882003 168.942,270.282 C168.755999,269.681997 168.651,269.028004 168.627,268.32 C168.627,267.611996 168.734999,266.964003 168.951,266.376 C169.167001,265.787997 169.469998,265.278002 169.86,264.846 C170.250002,264.413998 170.711997,264.078001 171.246,263.838 C171.780003,263.597999 172.364997,263.478 173.001,263.478 C173.829004,263.478 174.515997,263.648998 175.062,263.991 C175.608003,264.333002 176.045998,264.767997 176.376,265.296 C176.706002,265.824003 176.933999,266.399997 177.06,267.024 C177.186001,267.648003 177.237,268.241997 177.213,268.806 L170.247,268.806 C170.235,269.214002 170.282999,269.600998 170.391,269.967 C170.499001,270.333002 170.672999,270.656999 170.913,270.939 C171.153001,271.221001 171.458998,271.445999 171.831,271.614 C172.203002,271.782001 172.640997,271.866 173.145,271.866 C173.793003,271.866 174.323998,271.716002 174.738,271.416 C175.152002,271.115998 175.424999,270.660003 175.557,270.048 L177.069,270.048 Z M179.913,268.428 C179.913,268.860002 179.969999,269.282998 180.084,269.697 C180.198001,270.111002 180.371999,270.479998 180.606,270.804 C180.840001,271.128002 181.139998,271.385999 181.506,271.578 C181.872002,271.770001 182.300998,271.866 182.793,271.866 C183.309003,271.866 183.746998,271.764001 184.107,271.56 C184.467002,271.355999 184.760999,271.089002 184.989,270.759 C185.217001,270.428998 185.381999,270.054002 185.484,269.634 C185.586001,269.213998 185.637,268.788002 185.637,268.356 C185.637,267.899998 185.583001,267.459002 185.475,267.033 C185.366999,266.606998 185.196001,266.232002 184.962,265.908 C184.727999,265.583998 184.425002,265.323001 184.053,265.125 C183.680998,264.926999 183.231003,264.828 182.703,264.828 C182.186997,264.828 181.749002,264.929999 181.389,265.134 C181.028998,265.338001 180.741001,265.607998 180.525,265.944 C180.308999,266.280002 180.153,266.663998 180.057,267.096 C179.961,267.528002 179.913,267.971998 179.913,268.428 Z M187.113,273 L185.583,273 L185.583,271.74 L185.547,271.74 C185.294999,272.256003 184.899003,272.627999 184.359,272.856 C183.818997,273.084001 183.225003,273.198 182.577,273.198 C181.856996,273.198 181.230003,273.066001 180.696,272.802 C180.161997,272.537999 179.718002,272.184002 179.364,271.74 C179.009998,271.295998 178.743001,270.780003 178.563,270.192 C178.382999,269.603997 178.293,268.980003 178.293,268.32 C178.293,267.659997 178.379999,267.036003 178.554,266.448 C178.728001,265.859997 178.991998,265.347002 179.346,264.909 C179.700002,264.470998 180.143997,264.123001 180.678,263.865 C181.212003,263.606999 181.832996,263.478 182.541,263.478 C182.781001,263.478 183.038999,263.502 183.315,263.55 C183.591001,263.598 183.866999,263.678999 184.143,263.793 C184.419001,263.907001 184.679999,264.056999 184.926,264.243 C185.172001,264.429001 185.378999,264.659999 185.547,264.936 L185.583,264.936 L185.583,260.148 L187.113,260.148 L187.113,273 Z M195.105,265.044 L193.539,265.044 L193.539,263.694 L195.105,263.694 L195.105,262.308 C195.105,261.551996 195.323998,260.979002 195.762,260.589 C196.200002,260.198998 196.838996,260.004 197.679,260.004 C197.823001,260.004 197.987999,260.016 198.174,260.04 C198.360001,260.064 198.524999,260.1 198.669,260.148 L198.669,261.48 C198.536999,261.432 198.393001,261.399 198.237,261.381 C198.080999,261.363 197.937001,261.354 197.805,261.354 C197.432998,261.354 197.145001,261.425999 196.941,261.57 C196.736999,261.714001 196.635,261.989998 196.635,262.398 L196.635,263.694 L198.435,263.694 L198.435,265.044 L196.635,265.044 L196.635,273 L195.105,273 L195.105,265.044 Z M200.919,268.356 C200.919,268.920003 200.993999,269.420998 201.144,269.859 C201.294001,270.297002 201.500999,270.662999 201.765,270.957 C202.029001,271.251001 202.337998,271.475999 202.692,271.632 C203.046002,271.788001 203.420998,271.866 203.817,271.866 C204.213002,271.866 204.587998,271.788001 204.942,271.632 C205.296002,271.475999 205.604999,271.251001 205.869,270.957 C206.133001,270.662999 206.339999,270.297002 206.49,269.859 C206.640001,269.420998 206.715,268.920003 206.715,268.356 C206.715,267.791997 206.640001,267.291002 206.49,266.853 C206.339999,266.414998 206.133001,266.046001 205.869,265.746 C205.604999,265.445998 205.296002,265.218001 204.942,265.062 C204.587998,264.905999 204.213002,264.828 203.817,264.828 C203.420998,264.828 203.046002,264.905999 202.692,265.062 C202.337998,265.218001 202.029001,265.445998 201.765,265.746 C201.500999,266.046001 201.294001,266.414998 201.144,266.853 C200.993999,267.291002 200.919,267.791997 200.919,268.356 Z M199.299,268.356 C199.299,267.671997 199.394999,267.033003 199.587,266.439 C199.779001,265.844997 200.066998,265.329002 200.451,264.891 C200.835002,264.452998 201.308997,264.108001 201.873,263.856 C202.437003,263.603999 203.084996,263.478 203.817,263.478 C204.561004,263.478 205.211997,263.603999 205.77,263.856 C206.328003,264.108001 206.798998,264.452998 207.183,264.891 C207.567002,265.329002 207.854999,265.844997 208.047,266.439 C208.239001,267.033003 208.335,267.671997 208.335,268.356 C208.335,269.040003 208.239001,269.675997 208.047,270.264 C207.854999,270.852003 207.567002,271.364998 207.183,271.803 C206.798998,272.241002 206.328003,272.582999 205.77,272.829 C205.211997,273.075001 204.561004,273.198 203.817,273.198 C203.084996,273.198 202.437003,273.075001 201.873,272.829 C201.308997,272.582999 200.835002,272.241002 200.451,271.803 C200.066998,271.364998 199.779001,270.852003 199.587,270.264 C199.394999,269.675997 199.299,269.040003 199.299,268.356 Z M210.081,263.694 L211.521,263.694 L211.521,265.656 L211.557,265.656 C211.929002,264.899996 212.384997,264.342002 212.925,263.982 C213.465003,263.621998 214.148996,263.454 214.977,263.478 L214.977,265.098 C214.364997,265.098 213.843002,265.181999 213.411,265.35 C212.978998,265.518001 212.631001,265.763998 212.367,266.088 C212.102999,266.412002 211.911001,266.804998 211.791,267.267 C211.670999,267.729002 211.611,268.259997 211.611,268.86 L211.611,273 L210.081,273 L210.081,263.694 Z M221.187,260.148 L222.717,260.148 L222.717,264.954 L222.753,264.954 C223.005001,264.437997 223.400997,264.063001 223.941,263.829 C224.481003,263.594999 225.074997,263.478 225.723,263.478 C226.443004,263.478 227.069997,263.609999 227.604,263.874 C228.138003,264.138001 228.581998,264.494998 228.936,264.945 C229.290002,265.395002 229.556999,265.913997 229.737,266.502 C229.917001,267.090003 230.007,267.713997 230.007,268.374 C230.007,269.034003 229.920001,269.657997 229.746,270.246 C229.571999,270.834003 229.308002,271.346998 228.954,271.785 C228.599998,272.223002 228.156003,272.567999 227.622,272.82 C227.087997,273.072001 226.467004,273.198 225.759,273.198 C225.530999,273.198 225.276001,273.174 224.994,273.126 C224.711999,273.078 224.433001,273.000001 224.157,272.892 C223.880999,272.783999 223.620001,272.637001 223.374,272.451 C223.127999,272.264999 222.921001,272.034001 222.753,271.758 L222.717,271.758 L222.717,273 L221.187,273 L221.187,260.148 Z M228.387,268.266 C228.387,267.833998 228.330001,267.411002 228.216,266.997 C228.101999,266.582998 227.928001,266.214002 227.694,265.89 C227.459999,265.565998 227.160002,265.308001 226.794,265.116 C226.427998,264.923999 225.999002,264.828 225.507,264.828 C224.990997,264.828 224.553002,264.929999 224.193,265.134 C223.832998,265.338001 223.539001,265.604998 223.311,265.935 C223.082999,266.265002 222.918001,266.639998 222.816,267.06 C222.713999,267.480002 222.663,267.905998 222.663,268.338 C222.663,268.794002 222.716999,269.234998 222.825,269.661 C222.933001,270.087002 223.103999,270.461998 223.338,270.786 C223.572001,271.110002 223.874998,271.370999 224.247,271.569 C224.619002,271.767001 225.068997,271.866 225.597,271.866 C226.125003,271.866 226.565998,271.764001 226.92,271.56 C227.274002,271.355999 227.558999,271.086002 227.775,270.75 C227.991001,270.413998 228.147,270.030002 228.243,269.598 C228.339,269.165998 228.387,268.722002 228.387,268.266 Z M233.427,262.02 L231.897,262.02 L231.897,260.148 L233.427,260.148 L233.427,262.02 Z M231.897,263.694 L233.427,263.694 L233.427,273 L231.897,273 L231.897,263.694 Z M236.919,268.428 C236.919,268.860002 236.975999,269.282998 237.09,269.697 C237.204001,270.111002 237.377999,270.479998 237.612,270.804 C237.846001,271.128002 238.145998,271.385999 238.512,271.578 C238.878002,271.770001 239.306998,271.866 239.799,271.866 C240.315003,271.866 240.752998,271.764001 241.113,271.56 C241.473002,271.355999 241.766999,271.089002 241.995,270.759 C242.223001,270.428998 242.387999,270.054002 242.49,269.634 C242.592001,269.213998 242.643,268.788002 242.643,268.356 C242.643,267.899998 242.589001,267.459002 242.481,267.033 C242.372999,266.606998 242.202001,266.232002 241.968,265.908 C241.733999,265.583998 241.431002,265.323001 241.059,265.125 C240.686998,264.926999 240.237003,264.828 239.709,264.828 C239.192997,264.828 238.755002,264.929999 238.395,265.134 C238.034998,265.338001 237.747001,265.607998 237.531,265.944 C237.314999,266.280002 237.159,266.663998 237.063,267.096 C236.967,267.528002 236.919,267.971998 236.919,268.428 Z M244.119,273 L242.589,273 L242.589,271.74 L242.553,271.74 C242.300999,272.256003 241.905003,272.627999 241.365,272.856 C240.824997,273.084001 240.231003,273.198 239.583,273.198 C238.862996,273.198 238.236003,273.066001 237.702,272.802 C237.167997,272.537999 236.724002,272.184002 236.37,271.74 C236.015998,271.295998 235.749001,270.780003 235.569,270.192 C235.388999,269.603997 235.299,268.980003 235.299,268.32 C235.299,267.659997 235.385999,267.036003 235.56,266.448 C235.734001,265.859997 235.997998,265.347002 236.352,264.909 C236.706002,264.470998 237.149997,264.123001 237.684,263.865 C238.218003,263.606999 238.838996,263.478 239.547,263.478 C239.787001,263.478 240.044999,263.502 240.321,263.55 C240.597001,263.598 240.872999,263.678999 241.149,263.793 C241.425001,263.907001 241.685999,264.056999 241.932,264.243 C242.178001,264.429001 242.384999,264.659999 242.553,264.936 L242.589,264.936 L242.589,260.148 L244.119,260.148 L244.119,273 Z M247.593,268.428 C247.593,268.860002 247.649999,269.282998 247.764,269.697 C247.878001,270.111002 248.051999,270.479998 248.286,270.804 C248.520001,271.128002 248.819998,271.385999 249.186,271.578 C249.552002,271.770001 249.980998,271.866 250.473,271.866 C250.989003,271.866 251.426998,271.764001 251.787,271.56 C252.147002,271.355999 252.440999,271.089002 252.669,270.759 C252.897001,270.428998 253.061999,270.054002 253.164,269.634 C253.266001,269.213998 253.317,268.788002 253.317,268.356 C253.317,267.899998 253.263001,267.459002 253.155,267.033 C253.046999,266.606998 252.876001,266.232002 252.642,265.908 C252.407999,265.583998 252.105002,265.323001 251.733,265.125 C251.360998,264.926999 250.911003,264.828 250.383,264.828 C249.866997,264.828 249.429002,264.929999 249.069,265.134 C248.708998,265.338001 248.421001,265.607998 248.205,265.944 C247.988999,266.280002 247.833,266.663998 247.737,267.096 C247.641,267.528002 247.593,267.971998 247.593,268.428 Z M254.793,273 L253.263,273 L253.263,271.74 L253.227,271.74 C252.974999,272.256003 252.579003,272.627999 252.039,272.856 C251.498997,273.084001 250.905003,273.198 250.257,273.198 C249.536996,273.198 248.910003,273.066001 248.376,272.802 C247.841997,272.537999 247.398002,272.184002 247.044,271.74 C246.689998,271.295998 246.423001,270.780003 246.243,270.192 C246.062999,269.603997 245.973,268.980003 245.973,268.32 C245.973,267.659997 246.059999,267.036003 246.234,266.448 C246.408001,265.859997 246.671998,265.347002 247.026,264.909 C247.380002,264.470998 247.823997,264.123001 248.358,263.865 C248.892003,263.606999 249.512996,263.478 250.221,263.478 C250.461001,263.478 250.718999,263.502 250.995,263.55 C251.271001,263.598 251.546999,263.678999 251.823,263.793 C252.099001,263.907001 252.359999,264.056999 252.606,264.243 C252.852001,264.429001 253.058999,264.659999 253.227,264.936 L253.263,264.936 L253.263,260.148 L254.793,260.148 L254.793,273 Z M258.771,262.02 L257.241,262.02 L257.241,260.148 L258.771,260.148 L258.771,262.02 Z M257.241,263.694 L258.771,263.694 L258.771,273 L257.241,273 L257.241,263.694 Z M261.147,263.694 L262.587,263.694 L262.587,265.17 L262.623,265.17 C263.259003,264.041994 264.266993,263.478 265.647,263.478 C266.259003,263.478 266.768998,263.561999 267.177,263.73 C267.585002,263.898001 267.914999,264.131999 268.167,264.432 C268.419001,264.732002 268.595999,265.088998 268.698,265.503 C268.800001,265.917002 268.851,266.375997 268.851,266.88 L268.851,273 L267.321,273 L267.321,266.7 C267.321,266.123997 267.153002,265.668002 266.817,265.332 C266.480998,264.995998 266.019003,264.828 265.431,264.828 C264.962998,264.828 264.558002,264.899999 264.216,265.044 C263.873998,265.188001 263.589001,265.391999 263.361,265.656 C263.132999,265.920001 262.962001,266.228998 262.848,266.583 C262.733999,266.937002 262.677,267.323998 262.677,267.744 L262.677,273 L261.147,273 L261.147,263.694 Z M279.183,272.208 C279.183,273.732008 278.835003,274.871996 278.139,275.628 C277.442997,276.384004 276.351007,276.762 274.863,276.762 C274.430998,276.762 273.990002,276.714 273.54,276.618 C273.089998,276.522 272.682002,276.366001 272.316,276.15 C271.949998,275.933999 271.647001,275.652002 271.407,275.304 C271.166999,274.955998 271.035,274.530003 271.011,274.026 L272.541,274.026 C272.553,274.302001 272.639999,274.535999 272.802,274.728 C272.964001,274.920001 273.161999,275.075999 273.396,275.196 C273.630001,275.316001 273.884999,275.403 274.161,275.457 C274.437001,275.511 274.700999,275.538 274.953,275.538 C275.457003,275.538 275.882998,275.451001 276.231,275.277 C276.579002,275.102999 276.866999,274.863002 277.095,274.557 C277.323001,274.250998 277.487999,273.882002 277.59,273.45 C277.692001,273.017998 277.743,272.544003 277.743,272.028 L277.743,271.416 L277.707,271.416 C277.442999,271.992003 277.044003,272.414999 276.51,272.685 C275.975997,272.955001 275.409003,273.09 274.809,273.09 C274.112997,273.09 273.507003,272.964001 272.991,272.712 C272.474997,272.459999 272.043002,272.121002 271.695,271.695 C271.346998,271.268998 271.086001,270.771003 270.912,270.201 C270.737999,269.630997 270.651,269.028003 270.651,268.392 C270.651,267.839997 270.722999,267.273003 270.867,266.691 C271.011001,266.108997 271.250998,265.581002 271.587,265.107 C271.923002,264.632998 272.366997,264.243002 272.919,263.937 C273.471003,263.630998 274.148996,263.478 274.953,263.478 C275.541003,263.478 276.080998,263.606999 276.573,263.865 C277.065002,264.123001 277.448999,264.509997 277.725,265.026 L277.743,265.026 L277.743,263.694 L279.183,263.694 L279.183,272.208 Z M274.899,271.758 C275.403003,271.758 275.831998,271.653001 276.186,271.443 C276.540002,271.232999 276.824999,270.957002 277.041,270.615 C277.257001,270.272998 277.415999,269.886002 277.518,269.454 C277.620001,269.021998 277.671,268.590002 277.671,268.158 C277.671,267.749998 277.623,267.348002 277.527,266.952 C277.431,266.555998 277.278001,266.199002 277.068,265.881 C276.857999,265.562998 276.585002,265.308001 276.249,265.116 C275.912998,264.923999 275.505002,264.828 275.025,264.828 C274.532998,264.828 274.113002,264.920999 273.765,265.107 C273.416998,265.293001 273.132001,265.541998 272.91,265.854 C272.687999,266.166002 272.526001,266.525998 272.424,266.934 C272.321999,267.342002 272.271,267.767998 272.271,268.212 C272.271,268.632002 272.313,269.051998 272.397,269.472 C272.481,269.892002 272.624999,270.272998 272.829,270.615 C273.033001,270.957002 273.302998,271.232999 273.639,271.443 C273.975002,271.653001 274.394997,271.758 274.899,271.758 Z M281.667,271.002 L283.665,271.002 L283.665,273 L281.667,273 L281.667,271.002 Z M283.521,264.108 L283.071,269.706 L282.261,269.706 L281.811,264.108 L281.811,260.148 L283.521,260.148 L283.521,264.108 Z" id="There-are-no-auction" fill="#9C9C9C"></path>
        <g id="Group" transform="translate(174.976704, 102.836556) rotate(-19.000000) translate(-174.976704, -102.836556) translate(60.976704, 35.836556)">
            <rect id="Rectangle" stroke="#CDCDCD" stroke-width="3" x="1.5" y="56.5" width="225" height="76" rx="25"></rect>
            <path d="M63.132,87.488 C62.4599966,86.5759954 61.5840054,85.9100021 60.504,85.49 C59.4239946,85.0699979 58.3680052,84.86 57.336,84.86 C56.0159934,84.86 54.8160054,85.0999976 53.736,85.58 C52.6559946,86.0600024 51.7260039,86.7199958 50.946,87.56 C50.1659961,88.4000042 49.5660021,89.3839944 49.146,90.512 C48.7259979,91.6400056 48.516,92.8639934 48.516,94.184 C48.516,95.576007 48.719998,96.8479942 49.128,98 C49.536002,99.1520058 50.1179962,100.141996 50.874,100.97 C51.6300038,101.798004 52.5359947,102.439998 53.592,102.896 C54.6480053,103.352002 55.8359934,103.58 57.156,103.58 C58.5240068,103.58 59.7359947,103.310003 60.792,102.77 C61.8480053,102.229997 62.6999968,101.516004 63.348,100.628 L66.984,103.184 C65.8559944,104.600007 64.4760082,105.697996 62.844,106.478 C61.2119918,107.258004 59.3040109,107.648 57.12,107.648 C55.12799,107.648 53.2980083,107.318003 51.63,106.658 C49.9619917,105.997997 48.528006,105.074006 47.328,103.886 C46.127994,102.697994 45.1920034,101.282008 44.52,99.638 C43.8479966,97.9939918 43.512,96.17601 43.512,94.184 C43.512,92.1439898 43.8659965,90.3020082 44.574,88.658 C45.2820035,87.0139918 46.2539938,85.6160058 47.49,84.464 C48.7260062,83.3119942 50.1839916,82.4240031 51.864,81.8 C53.5440084,81.1759969 55.3679902,80.864 57.336,80.864 C58.1520041,80.864 59.0039956,80.9419992 59.892,81.098 C60.7800044,81.2540008 61.6319959,81.4939984 62.448,81.818 C63.2640041,82.1420016 64.0319964,82.5439976 64.752,83.024 C65.4720036,83.5040024 66.0839975,84.0799966 66.588,84.752 L63.132,87.488 Z M69.792,81.512 L74.328,81.512 L74.328,102.968 L85.164,102.968 L85.164,107 L69.792,107 L69.792,81.512 Z M86.964,94.184 C86.964,92.1439898 87.3059966,90.3020082 87.99,88.658 C88.6740034,87.0139918 89.6219939,85.6160058 90.834,84.464 C92.0460061,83.3119942 93.4859917,82.4240031 95.154,81.8 C96.8220083,81.1759969 98.6399902,80.864 100.608,80.864 C102.60001,80.864 104.435992,81.1759969 106.116,81.8 C107.796008,82.4240031 109.247994,83.3119942 110.472,84.464 C111.696006,85.6160058 112.649997,87.0139918 113.334,88.658 C114.018003,90.3020082 114.36,92.1439898 114.36,94.184 C114.36,96.17601 114.018003,97.9939918 113.334,99.638 C112.649997,101.282008 111.696006,102.697994 110.472,103.886 C109.247994,105.074006 107.796008,105.997997 106.116,106.658 C104.435992,107.318003 102.60001,107.648 100.608,107.648 C98.6399902,107.648 96.8220083,107.318003 95.154,106.658 C93.4859917,105.997997 92.0460061,105.074006 90.834,103.886 C89.6219939,102.697994 88.6740034,101.282008 87.99,99.638 C87.3059966,97.9939918 86.964,96.17601 86.964,94.184 Z M91.896,94.184 C91.896,95.5520068 92.1059979,96.8059943 92.526,97.946 C92.9460021,99.0860057 93.5459961,100.075996 94.326,100.916 C95.1060039,101.756004 96.0299947,102.409998 97.098,102.878 C98.1660053,103.346002 99.3479935,103.58 100.644,103.58 C101.940006,103.58 103.127995,103.346002 104.208,102.878 C105.288005,102.409998 106.217996,101.756004 106.998,100.916 C107.778004,100.075996 108.377998,99.0860057 108.798,97.946 C109.218002,96.8059943 109.428,95.5520068 109.428,94.184 C109.428,92.8639934 109.218002,91.6400056 108.798,90.512 C108.377998,89.3839944 107.784004,88.4000042 107.016,87.56 C106.247996,86.7199958 105.324005,86.0600024 104.244,85.58 C103.163995,85.0999976 101.964007,84.86 100.644,84.86 C99.3239934,84.86 98.1300053,85.0999976 97.062,85.58 C95.9939947,86.0600024 95.0760038,86.7199958 94.308,87.56 C93.5399962,88.4000042 92.9460021,89.3839944 92.526,90.512 C92.1059979,91.6400056 91.896,92.8639934 91.896,94.184 Z M131.748,86.84 C131.267998,86.2159969 130.590004,85.6940021 129.714,85.274 C128.837996,84.8539979 127.956004,84.644 127.068,84.644 C126.539997,84.644 126.012003,84.7099993 125.484,84.842 C124.955997,84.9740007 124.476002,85.1779986 124.044,85.454 C123.611998,85.7300014 123.258001,86.0899978 122.982,86.534 C122.705999,86.9780022 122.568,87.5119969 122.568,88.136 C122.568,88.7120029 122.687999,89.203998 122.928,89.612 C123.168001,90.020002 123.497998,90.3679986 123.918,90.656 C124.338002,90.9440014 124.847997,91.1959989 125.448,91.412 C126.048003,91.6280011 126.707996,91.8439989 127.428,92.06 C128.244004,92.3240013 129.089996,92.6239983 129.966,92.96 C130.842004,93.2960017 131.645996,93.7399972 132.378,94.292 C133.110004,94.8440028 133.709998,95.5399958 134.178,96.38 C134.646002,97.2200042 134.88,98.2639938 134.88,99.512 C134.88,100.880007 134.628003,102.073995 134.124,103.094 C133.619997,104.114005 132.948004,104.959997 132.108,105.632 C131.267996,106.304003 130.284006,106.807998 129.156,107.144 C128.027994,107.480002 126.840006,107.648 125.592,107.648 C123.935992,107.648 122.316008,107.342003 120.732,106.73 C119.147992,106.117997 117.852005,105.212006 116.844,104.012 L120.084,100.988 C120.708003,101.852004 121.541995,102.535997 122.586,103.04 C123.630005,103.544003 124.655995,103.796 125.664,103.796 C126.192003,103.796 126.731997,103.730001 127.284,103.598 C127.836003,103.465999 128.333998,103.244002 128.778,102.932 C129.222002,102.619998 129.581999,102.230002 129.858,101.762 C130.134001,101.293998 130.272,100.712003 130.272,100.016 C130.272,99.3439966 130.116002,98.7860022 129.804,98.342 C129.491998,97.8979978 129.072003,97.5140016 128.544,97.19 C128.015997,96.8659984 127.392004,96.5840012 126.672,96.344 L124.404,95.588 C123.635996,95.3479988 122.868004,95.0600017 122.1,94.724 C121.331996,94.3879983 120.642003,93.9440028 120.03,93.392 C119.417997,92.8399972 118.920002,92.162004 118.536,91.358 C118.151998,90.553996 117.96,89.552006 117.96,88.352 C117.96,87.0559935 118.229997,85.9400047 118.77,85.004 C119.310003,84.0679953 120.017996,83.2940031 120.894,82.682 C121.770004,82.0699969 122.765994,81.6140015 123.882,81.314 C124.998006,81.0139985 126.131994,80.864 127.284,80.864 C128.580006,80.864 129.893993,81.0919977 131.226,81.548 C132.558007,82.0040023 133.715995,82.6879954 134.7,83.6 L131.748,86.84 Z M139.416,81.512 L156.3,81.512 L156.3,85.472 L143.952,85.472 L143.952,91.952 L155.652,91.952 L155.652,95.768 L143.952,95.768 L143.952,102.968 L156.948,102.968 L156.948,107 L139.416,107 L139.416,81.512 Z M161.376,81.512 L170.412,81.512 C172.068008,81.512 173.735992,81.7279978 175.416,82.16 C177.096008,82.5920022 178.607993,83.305995 179.952,84.302 C181.296007,85.298005 182.387996,86.6059919 183.228,88.226 C184.068004,89.8460081 184.488,91.855988 184.488,94.256 C184.488,96.4880112 184.068004,98.407992 183.228,100.016 C182.387996,101.624008 181.296007,102.943995 179.952,103.976 C178.607993,105.008005 177.096008,105.769998 175.416,106.262 C173.735992,106.754002 172.068008,107 170.412,107 L161.376,107 L161.376,81.512 Z M169.692,103.04 C170.868006,103.04 172.043994,102.902001 173.22,102.626 C174.396006,102.349999 175.457995,101.882003 176.406,101.222 C177.354005,100.561997 178.127997,99.6680056 178.728,98.54 C179.328003,97.4119944 179.628,95.9840086 179.628,94.256 C179.628,92.4319909 179.328003,90.9440058 178.728,89.792 C178.127997,88.6399942 177.354005,87.7400032 176.406,87.092 C175.457995,86.4439968 174.396006,86.0000012 173.22,85.76 C172.043994,85.5199988 170.868006,85.4 169.692,85.4 L165.912,85.4 L165.912,103.04 L169.692,103.04 Z" id="CLOSED" fill="#CDCDCD"></path>
            <path d="M16.0209385,58.2900517 L128.449742,9.74868715" id="Line" stroke="#CDCDCD" stroke-width="3" stroke-linecap="round"></path>
            <path d="M215.234743,60.2547626 L138.556064,11.1133315" id="Line" stroke="#CDCDCD" stroke-width="3" stroke-linecap="round"></path>
            <circle id="Oval" stroke="#CDCDCD" stroke-width="4" cx="133.410372" cy="8.01136309" r="5.5"></circle>
        </g>
    </g>
</svg>